<svg xmlns="http://www.w3.org/2000/svg" xmlns:xlink="http://www.w3.org/1999/xlink" version="1.1" style="background: #ffffff" viewBox="149.00000147072666 108.99999687470586 2180.000029414533 1600.0000413641872"><style id="v-3" type="text/css">        .joint-element .scalable * {            vector-effect: non-scaling-stroke;        }    </style><defs joint-selector="defs"><marker id="v-2-480243263" orient="auto" overflow="visible" markerUnits="userSpaceOnUse"><path id="v-98" stroke="#707070" fill="#707070" transform="rotate(180)" d="M 20 -10 0 0 20 10 Z"></path></marker></defs><g  joint-selector="layers" transform="matrix(1,0,0,1,0,0)"><g style="pointer-events: none;" ></g><g ></g><g  style="user-select: none;"><!--z-index:1--><!--z-index:2--><!--z-index:3--><!--z-index:4--><!--z-index:5--><!--z-index:6--><!--z-index:7--><!--z-index:8--><!--z-index:9--><!--z-index:10--><!--z-index:11--><!--z-index:12--><!--z-index:13--><!--z-index:14--><g   id="j_310"  transform="translate(20,1856)"><g id="v-3065"><text  id="v-3066" font-size="24px" xml:space="preserve" y="0.8em" font-weight="normal" text-anchor="start" fill="#444444" pointer-events="none" display="block" font-family="Tahoma, Verdana, Helvetica, Arial"><tspan  dy="0" display="none">sexta-feira, 22 de maio de 2026 às 12:21 Horário Padrão do Amazonas</tspan></text></g></g><!--z-index:15--><g   id="j_309"  transform="translate(20,1810)"><g id="v-3063"><text  id="v-3064" font-size="36px" xml:space="preserve" y="0.8em" font-weight="normal" text-anchor="start" fill="#444444" pointer-events="none" display="block" font-family="Tahoma, Verdana, Helvetica, Arial"><tspan  dy="0" display="none">Container View: Plataforma Goya</tspan></text></g></g><!--z-index:16--><g   id="j_311"  transform="translate(199,159)" style=""><g  id="v-3070" style="opacity: 1;"><rect  x="0" y="160" width="400" height="240" rx="70" id="v-3072" stroke-width="2" pointer-events="visiblePainted" fill="#08427b" stroke="#0b4884" stroke-dasharray="" style="fill: rgb(8, 66, 123); stroke: rgb(11, 72, 132);"></rect><circle  cx="200" cy="88.88888888888889" r="88.88888888888889" id="v-3071" stroke-width="2" pointer-events="visiblePainted" fill="#08427b" stroke="#0b4884" stroke-dasharray="" style="fill: rgb(8, 66, 123); stroke: rgb(11, 72, 132);"></circle><line  x1="80" y1="266.6666666666667" x2="80" y2="400" id="v-3078" stroke="#0b4884" stroke-width="1" stroke-dasharray="" style="stroke: rgb(11, 72, 132);"></line><line  x1="320" y1="266.6666666666667" x2="320" y2="400" id="v-3079" stroke="#0b4884" stroke-width="1" stroke-dasharray="" style="stroke: rgb(11, 72, 132);"></line><text  id="v-3073" font-size="33.599999999999994px" xml:space="preserve" y="216.9" font-weight="bold" text-anchor="middle" pointer-events="visible" font-family="Tahoma, Verdana, Helvetica, Arial" fill="#ffffff" dominant-baseline="hanging" transform="matrix(1,0,0,1,200,0)" style="fill: rgb(255, 255, 255);"><tspan  dy="0">Aluno</tspan></text><text  id="v-3074" font-size="16.799999999999997px" xml:space="preserve" y="258.5" text-anchor="middle" font-family="Tahoma, Verdana, Helvetica, Arial" fill="#ffffff" dominant-baseline="hanging" transform="matrix(1,0,0,1,200,0)" style="display: block; fill: rgb(255, 255, 255);"><tspan  dy="0">[Person]</tspan></text><text  id="v-3075" font-size="24px" xml:space="preserve" y="290.3" text-anchor="middle" font-family="Tahoma, Verdana, Helvetica, Arial" fill="#ffffff" dominant-baseline="hanging" transform="matrix(1,0,0,1,200,0)" style="display: block; fill: rgb(255, 255, 255);"><tspan  dy="0">Cliente que agenda e consulta</tspan><tspan dy="1.2em" x="0" >aulas.</tspan></text><g  id="v-3076" font-weight="normal" text-anchor="middle" color="#ffffff" transform="matrix(1,0,0,1,197.5,368)" style="fill: rgb(255, 255, 255);" display="none"><g ></g><g ></g><g ></g><g ></g></g><image  id="v-3077"></image></g></g><!--z-index:17--><g   id="j_312"  transform="translate(199,609)" style=""><g  id="v-3083" style="opacity: 1;"><rect  x="0" y="160" width="400" height="240" rx="70" id="v-3085" stroke-width="2" pointer-events="visiblePainted" fill="#08427b" stroke="#0b4884" stroke-dasharray="" style="fill: rgb(8, 66, 123); stroke: rgb(11, 72, 132);"></rect><circle  cx="200" cy="88.88888888888889" r="88.88888888888889" id="v-3084" stroke-width="2" pointer-events="visiblePainted" fill="#08427b" stroke="#0b4884" stroke-dasharray="" style="fill: rgb(8, 66, 123); stroke: rgb(11, 72, 132);"></circle><line  x1="80" y1="266.6666666666667" x2="80" y2="400" id="v-3091" stroke="#0b4884" stroke-width="1" stroke-dasharray="" style="stroke: rgb(11, 72, 132);"></line><line  x1="320" y1="266.6666666666667" x2="320" y2="400" id="v-3092" stroke="#0b4884" stroke-width="1" stroke-dasharray="" style="stroke: rgb(11, 72, 132);"></line><text  id="v-3086" font-size="33.599999999999994px" xml:space="preserve" y="202.5" font-weight="bold" text-anchor="middle" pointer-events="visible" font-family="Tahoma, Verdana, Helvetica, Arial" fill="#ffffff" dominant-baseline="hanging" transform="matrix(1,0,0,1,200,0)" style="fill: rgb(255, 255, 255);"><tspan  dy="0">Instrutor</tspan></text><text  id="v-3087" font-size="16.799999999999997px" xml:space="preserve" y="244.1" text-anchor="middle" font-family="Tahoma, Verdana, Helvetica, Arial" fill="#ffffff" dominant-baseline="hanging" transform="matrix(1,0,0,1,200,0)" style="display: block; fill: rgb(255, 255, 255);"><tspan  dy="0">[Person]</tspan></text><text  id="v-3088" font-size="24px" xml:space="preserve" y="275.9" text-anchor="middle" font-family="Tahoma, Verdana, Helvetica, Arial" fill="#ffffff" dominant-baseline="hanging" transform="matrix(1,0,0,1,200,0)" style="display: block; fill: rgb(255, 255, 255);"><tspan  dy="0">Responsável pelos</tspan><tspan dy="1.2em" x="0" >treinamentos e gerenciamento</tspan><tspan dy="1.2em" x="0" >da agenda.</tspan></text><g  id="v-3089" font-weight="normal" text-anchor="middle" color="#ffffff" transform="matrix(1,0,0,1,197.5,368)" style="fill: rgb(255, 255, 255);" display="none"><g ></g><g ></g><g ></g><g ></g></g><image  id="v-3090"></image></g></g><!--z-index:18--><g   id="j_313"  transform="translate(199,1059)" style=""><g  id="v-3096" style="opacity: 1;"><rect  x="0" y="160" width="400" height="240" rx="70" id="v-3098" stroke-width="2" pointer-events="visiblePainted" fill="#08427b" stroke="#0b4884" stroke-dasharray="" style="fill: rgb(8, 66, 123); stroke: rgb(11, 72, 132);"></rect><circle  cx="200" cy="88.88888888888889" r="88.88888888888889" id="v-3097" stroke-width="2" pointer-events="visiblePainted" fill="#08427b" stroke="#0b4884" stroke-dasharray="" style="fill: rgb(8, 66, 123); stroke: rgb(11, 72, 132);"></circle><line  x1="80" y1="266.6666666666667" x2="80" y2="400" id="v-3104" stroke="#0b4884" stroke-width="1" stroke-dasharray="" style="stroke: rgb(11, 72, 132);"></line><line  x1="320" y1="266.6666666666667" x2="320" y2="400" id="v-3105" stroke="#0b4884" stroke-width="1" stroke-dasharray="" style="stroke: rgb(11, 72, 132);"></line><text  id="v-3099" font-size="33.599999999999994px" xml:space="preserve" y="202.5" font-weight="bold" text-anchor="middle" pointer-events="visible" font-family="Tahoma, Verdana, Helvetica, Arial" fill="#ffffff" dominant-baseline="hanging" transform="matrix(1,0,0,1,200,0)" style="fill: rgb(255, 255, 255);"><tspan  dy="0">Administrador</tspan></text><text  id="v-3100" font-size="16.799999999999997px" xml:space="preserve" y="244.1" text-anchor="middle" font-family="Tahoma, Verdana, Helvetica, Arial" fill="#ffffff" dominant-baseline="hanging" transform="matrix(1,0,0,1,200,0)" style="display: block; fill: rgb(255, 255, 255);"><tspan  dy="0">[Person]</tspan></text><text  id="v-3101" font-size="24px" xml:space="preserve" y="275.9" text-anchor="middle" font-family="Tahoma, Verdana, Helvetica, Arial" fill="#ffffff" dominant-baseline="hanging" transform="matrix(1,0,0,1,200,0)" style="display: block; fill: rgb(255, 255, 255);"><tspan  dy="0">Responsável pela</tspan><tspan dy="1.2em" x="0" >administração operacional da</tspan><tspan dy="1.2em" x="0" >plataforma.</tspan></text><g  id="v-3102" font-weight="normal" text-anchor="middle" color="#ffffff" transform="matrix(1,0,0,1,197.5,368)" style="fill: rgb(255, 255, 255);" display="none"><g ></g><g ></g><g ></g><g ></g></g><image  id="v-3103"></image></g></g><!--z-index:19--><g   id="j_315"  transform="translate(939,209)" style="; opacity: 1;"><g id="v-3119"><rect  id="v-3120" width="1340" height="879" rx="20" ry="20" stroke-width="2" pointer-events="none" stroke="#0b4884" fill="#ffffff" opacity="1" stroke-dasharray=""></rect><text  id="v-3121" font-size="33.599999999999994px" xml:space="preserve" y="840" font-weight="bold" text-anchor="start" pointer-events="visible" font-family="Tahoma, Verdana, Helvetica, Arial" fill="#0b4884" transform="matrix(1,0,0,1,15,0)"><tspan  dy="0">Plataforma Goya</tspan></text><text  id="v-3122" font-size="16.799999999999997px" xml:space="preserve" y="864" font-weight="normal" text-anchor="start" pointer-events="visible" font-family="Tahoma, Verdana, Helvetica, Arial" fill="#0b4884" transform="matrix(1,0,0,1,15,0)"><tspan  dy="0">[Software System]</tspan></text><image  id="v-3123" pointer-events="visible"></image></g></g><!--z-index:20--><g   id="j_314"  transform="translate(989,659)" style=""><g  id="v-3112" style="opacity: 1;"><rect  id="v-3113" rx="20" ry="20" stroke-width="2" pointer-events="visiblePainted" fill="#438dd5" stroke="#0b4884" stroke-dasharray="" width="450" height="300" style="fill: rgb(67, 141, 213); stroke: rgb(11, 72, 132);"></rect><text  id="v-3114" font-size="33.599999999999994px" xml:space="preserve" y="72.5" font-weight="bold" text-anchor="middle" pointer-events="visible" font-family="Tahoma, Verdana, Helvetica, Arial" fill="#ffffff" dominant-baseline="hanging" transform="matrix(1,0,0,1,225,0)" style="fill: rgb(255, 255, 255);"><tspan  dy="0">Aplicação Web</tspan></text><text  id="v-3115" font-size="16.799999999999997px" xml:space="preserve" y="114.1" text-anchor="middle" font-family="Tahoma, Verdana, Helvetica, Arial" fill="#ffffff" dominant-baseline="hanging" transform="matrix(1,0,0,1,225,0)" style="display: block; fill: rgb(255, 255, 255);"><tspan  dy="0">[Container: Java + Spring Boot + React]</tspan></text><text  id="v-3116" font-size="24px" xml:space="preserve" y="145.89999999999998" text-anchor="middle" font-family="Tahoma, Verdana, Helvetica, Arial" fill="#ffffff" dominant-baseline="hanging" transform="matrix(1,0,0,1,225,0)" style="display: block; fill: rgb(255, 255, 255);"><tspan  dy="0">Aplicação web monolítica</tspan><tspan dy="1.2em" x="0" >responsável pela interface, regras</tspan><tspan dy="1.2em" x="0" >de negócio e integrações.</tspan></text><g  id="v-3117" color="#ffffff" transform="matrix(1,0,0,1,210,268)" style="fill: rgb(255, 255, 255);" display="none"><g  transform="translate(5 0)"><svg xmlns="http://www.w3.org/2000/svg" width="20" height="20" fill="currentColor" viewBox="0 0 16 16"><path fill-rule="evenodd" d="M6.5 12a5.5 5.5 0 1 0 0-11 5.5 5.5 0 0 0 0 11zM13 6.5a6.5 6.5 0 1 1-13 0 6.5 6.5 0 0 1 13 0z"></path><path d="M10.344 11.742c.03.04.062.078.098.115l3.85 3.85a1 1 0 0 0 1.415-1.414l-3.85-3.85a1.007 1.007 0 0 0-.115-.1 6.538 6.538 0 0 1-1.398 1.4z"></path><path fill-rule="evenodd" d="M6.5 3a.5.5 0 0 1 .5.5V6h2.5a.5.5 0 0 1 0 1H7v2.5a.5.5 0 0 1-1 0V7H3.5a.5.5 0 0 1 0-1H6V3.5a.5.5 0 0 1 .5-.5z"></path></svg></g><g ></g><g ></g><g ></g></g><image  id="v-3118"></image></g></g><!--z-index:21--><g   id="j_316"  transform="translate(1779,259)" style=""><g  id="v-3127" style="opacity: 1;"><path  d="M 0,30 a 225,30 0,0,0 450 0 a 225,30 0,0,0 -450 0 l 0,240 a 225,30 0,0,0 450 0 l 0,-240" id="v-3128" stroke-width="2" pointer-events="visiblePainted" fill="#2e7d32" stroke="#0b4884" stroke-dasharray="" style="fill: rgb(46, 125, 50); stroke: rgb(11, 72, 132);"></path><rect  id="v-3129" stroke-width="0" pointer-events="visiblePainted" fill="none" stroke="none" width="450" height="270" x="0" y="30"></rect><text  id="v-3130" font-size="33.599999999999994px" xml:space="preserve" y="101.9" font-weight="bold" text-anchor="middle" pointer-events="visible" font-family="Tahoma, Verdana, Helvetica, Arial" fill="#ffffff" dominant-baseline="hanging" transform="matrix(1,0,0,1,225,0)" style="fill: rgb(255, 255, 255);"><tspan  dy="0">PostgreSQL</tspan></text><text  id="v-3131" font-size="16.799999999999997px" xml:space="preserve" y="143.5" text-anchor="middle" font-family="Tahoma, Verdana, Helvetica, Arial" fill="#ffffff" dominant-baseline="hanging" transform="matrix(1,0,0,1,225,0)" style="display: block; fill: rgb(255, 255, 255);"><tspan  dy="0">[Container: PostgreSQL]</tspan></text><text  id="v-3132" font-size="24px" xml:space="preserve" y="175.3" text-anchor="middle" font-family="Tahoma, Verdana, Helvetica, Arial" fill="#ffffff" dominant-baseline="hanging" transform="matrix(1,0,0,1,225,0)" style="display: block; fill: rgb(255, 255, 255);"><tspan  dy="0">Banco de dados relacional da</tspan><tspan dy="1.2em" x="0" >aplicação.</tspan></text><g  id="v-3133" font-weight="normal" text-anchor="middle" color="#ffffff" transform="matrix(1,0,0,1,222.5,268)" style="fill: rgb(255, 255, 255);" display="none"><g ></g><g ></g><g ></g><g ></g></g><image  id="v-3134"></image></g></g><!--z-index:22--><g   id="j_317"  transform="translate(1779,1359)" style=""><g  id="v-3141" style="opacity: 1;"><rect  id="v-3142" rx="20" ry="20" stroke-width="2" pointer-events="visiblePainted" fill="#1168bd" stroke="#0b4884" stroke-dasharray="" width="450" height="300" style="fill: rgb(17, 104, 189); stroke: rgb(11, 72, 132);"></rect><text  id="v-3143" font-size="33.599999999999994px" xml:space="preserve" y="86.9" font-weight="bold" text-anchor="middle" pointer-events="visible" font-family="Tahoma, Verdana, Helvetica, Arial" fill="#ffffff" dominant-baseline="hanging" transform="matrix(1,0,0,1,225,0)" style="fill: rgb(255, 255, 255);"><tspan  dy="0">Serviço de Email</tspan></text><text  id="v-3144" font-size="16.799999999999997px" xml:space="preserve" y="128.5" text-anchor="middle" font-family="Tahoma, Verdana, Helvetica, Arial" fill="#ffffff" dominant-baseline="hanging" transform="matrix(1,0,0,1,225,0)" style="display: block; fill: rgb(255, 255, 255);"><tspan  dy="0">[Software System]</tspan></text><text  id="v-3145" font-size="24px" xml:space="preserve" y="160.3" text-anchor="middle" font-family="Tahoma, Verdana, Helvetica, Arial" fill="#ffffff" dominant-baseline="hanging" transform="matrix(1,0,0,1,225,0)" style="display: block; fill: rgb(255, 255, 255);"><tspan  dy="0">Serviço externo utilizado para envio</tspan><tspan dy="1.2em" x="0" >de notificações.</tspan></text><g  id="v-3146" color="#ffffff" transform="matrix(1,0,0,1,222.5,268)" style="fill: rgb(255, 255, 255);" display="none"><g ></g><g ></g><g ></g><g ></g></g><image  id="v-3147"></image></g></g><!--z-index:23--><g   id="j_318"  style="opacity: 1;"><path fill="none" cursor="pointer" stroke="transparent" stroke-linecap="round" joint-selector="wrapper" id="v-3159" stroke-width="10" stroke-linejoin="round" d="M 599 359 L 929 359 C 935.6666666666666 359 940.6666666666666 362 944 368 L 1122.33 659"></path><path fill="none" pointer-events="none" joint-selector="line" id="v-3158" stroke="#707070" stroke-width="2" stroke-linejoin="round" stroke-dasharray="8 8" d="M 599 359 L 929 359 C 935.6666666666666 359 940.6666666666666 362 944 368 L 1122.33 659" marker-end="url(#v-2-480243263)"></path><g id="v-3151" ><g id="v-3152"  label-idx="0" cursor="move" transform="matrix(1,0,0,1,768.5485229492188,359)" style="cursor: default;"><rect joint-selector="rect" id="v-3155" fill="#ffffff" rx="3" ry="3" x="-99.42497253417969" y="-30.078229904174805" width="199.612548828125" height="58.54169845581055" pointer-events="none"  style="display: block;"></rect><text joint-selector="text" id="v-3154" font-size="24px" xml:space="preserve" fill="#707070" text-anchor="middle" pointer-events="none" font-family="Tahoma, Verdana, Helvetica, Arial" font-weight="normal"  style="display: block;"><tspan  dy="-0.3em">Agenda e consulta</tspan><tspan dy="1.2em" x="0" >aulas</tspan></text></g><g id="v-3153"  label-idx="1" cursor="move" transform="matrix(1,0,0,1,758.5485229492188,385.3999938964844)" style="cursor: default;"><rect joint-selector="rect" id="v-3157" fill="#ffffff" rx="3" ry="3" x="1.1368683772161603e-13" y="0" width="0" height="0"  display="none"></rect><text joint-selector="text" id="v-3156" fill="#000000" font-size="14" text-anchor="middle" text-vertical-anchor="middle" pointer-events="none"></text></g></g></g><!--z-index:24--><g   id="j_319"  style="opacity: 1;"><path fill="none" cursor="pointer" stroke="transparent" stroke-linecap="round" joint-selector="wrapper" id="v-3171" stroke-width="10" stroke-linejoin="round" d="M 599 809 L 989 809"></path><path fill="none" pointer-events="none" joint-selector="line" id="v-3170" stroke="#707070" stroke-width="2" stroke-linejoin="round" stroke-dasharray="8 8" d="M 599 809 L 989 809" marker-end="url(#v-2-480243263)"></path><g id="v-3163" ><g id="v-3164"  label-idx="0" cursor="move" transform="matrix(1,0,0,1,769,809)" style="cursor: default;"><rect joint-selector="rect" id="v-3167" fill="#ffffff" rx="3" ry="3" x="-92.04674530029297" y="-30.078229904174805" width="184.85609436035156" height="58.54169845581055" pointer-events="none"  style="display: block;"></rect><text joint-selector="text" id="v-3166" font-size="24px" xml:space="preserve" fill="#707070" text-anchor="middle" pointer-events="none" font-family="Tahoma, Verdana, Helvetica, Arial" font-weight="normal"  style="display: block;"><tspan  dy="-0.3em">Gerencia agenda</tspan><tspan dy="1.2em" x="0" >e alunos</tspan></text></g><g id="v-3165"  label-idx="1" cursor="move" transform="matrix(1,0,0,1,759,835.4000244140625)" style="cursor: default;"><rect joint-selector="rect" id="v-3169" fill="#ffffff" rx="3" ry="3" x="1.1368683772161603e-13" y="0" width="0" height="0"  display="none"></rect><text joint-selector="text" id="v-3168" fill="#000000" font-size="14" text-anchor="middle" text-vertical-anchor="middle" pointer-events="none"></text></g></g></g><!--z-index:25--><g   id="j_320"  style="opacity: 1;"><path fill="none" cursor="pointer" stroke="transparent" stroke-linecap="round" joint-selector="wrapper" id="v-3183" stroke-width="10" stroke-linejoin="round" d="M 599 1259 L 929 1259 C 935.6666666666666 1259 940.6666666666666 1256 944 1250 L 1122.33 959"></path><path fill="none" pointer-events="none" joint-selector="line" id="v-3182" stroke="#707070" stroke-width="2" stroke-linejoin="round" stroke-dasharray="8 8" d="M 599 1259 L 929 1259 C 935.6666666666666 1259 940.6666666666666 1256 944 1250 L 1122.33 959" marker-end="url(#v-2-480243263)"></path><g id="v-3175" ><g id="v-3176"  label-idx="0" cursor="move" transform="matrix(1,0,0,1,768.5485229492188,1259)" style="cursor: default;"><rect joint-selector="rect" id="v-3179" fill="#ffffff" rx="3" ry="3" x="-66.6900405883789" y="-30.078229904174805" width="134.14268493652344" height="58.54169845581055" pointer-events="none"  style="display: block;"></rect><text joint-selector="text" id="v-3178" font-size="24px" xml:space="preserve" fill="#707070" text-anchor="middle" pointer-events="none" font-family="Tahoma, Verdana, Helvetica, Arial" font-weight="normal"  style="display: block;"><tspan  dy="-0.3em">Administra a</tspan><tspan dy="1.2em" x="0" >plataforma</tspan></text></g><g id="v-3177"  label-idx="1" cursor="move" transform="matrix(1,0,0,1,758.5485229492188,1285.4000244140625)" style="cursor: default;"><rect joint-selector="rect" id="v-3181" fill="#ffffff" rx="3" ry="3" x="1.1368683772161603e-13" y="0" width="0" height="0"  display="none"></rect><text joint-selector="text" id="v-3180" fill="#000000" font-size="14" text-anchor="middle" text-vertical-anchor="middle" pointer-events="none"></text></g></g></g><!--z-index:26--><g   id="j_321"  style="opacity: 1;"><path fill="none" cursor="pointer" stroke="transparent" stroke-linecap="round" joint-selector="wrapper" id="v-3195" stroke-width="10" stroke-linejoin="round" d="M 1362.13 659 L 1602 416 C 1606.6666666666665 411.33333333333326 1612.333333333333 408.99999999999994 1619 409 L 1779 409"></path><path fill="none" pointer-events="none" joint-selector="line" id="v-3194" stroke="#707070" stroke-width="2" stroke-linejoin="round" stroke-dasharray="8 8" d="M 1362.13 659 L 1602 416 C 1606.6666666666665 411.33333333333326 1612.333333333333 408.99999999999994 1619 409 L 1779 409" marker-end="url(#v-2-480243263)"></path><g id="v-3187" ><g id="v-3188"  label-idx="0" cursor="move" transform="matrix(1,0,0,1,1609.5511474609375,410.8330078125)" style="cursor: default;"><rect joint-selector="rect" id="v-3191" fill="#ffffff" rx="3" ry="3" x="-68.71095275878906" y="-30.078229904174805" width="138.18450927734375" height="58.54169845581055" pointer-events="none"  style="display: block;"></rect><text joint-selector="text" id="v-3190" font-size="24px" xml:space="preserve" fill="#707070" text-anchor="middle" pointer-events="none" font-family="Tahoma, Verdana, Helvetica, Arial" font-weight="normal"  style="display: block;"><tspan  dy="-0.3em">Lê e escreve</tspan><tspan dy="1.2em" x="0" >dados</tspan></text></g><g id="v-3189"  label-idx="1" cursor="move" transform="matrix(1,0,0,1,1599.5511474609375,437.2330017089844)" style="cursor: default;"><rect joint-selector="rect" id="v-3193" fill="#ffffff" rx="3" ry="3" x="0" y="5.684341886080802e-14" width="0" height="0"  display="none"></rect><text joint-selector="text" id="v-3192" fill="#000000" font-size="14" text-anchor="middle" text-vertical-anchor="middle" pointer-events="none"></text></g></g></g><!--z-index:27--><g   id="j_322"  style="opacity: 1;"><path fill="none" cursor="pointer" stroke="transparent" stroke-linecap="round" joint-selector="wrapper" id="v-3207" stroke-width="10" stroke-linejoin="round" d="M 1377.76 959 L 1602 1164 C 1606.6666666666665 1168.5333333333333 1611.6666666666665 1172.8666666666666 1617 1177 L 1828.81 1359"></path><path fill="none" pointer-events="none" joint-selector="line" id="v-3206" stroke="#707070" stroke-width="2" stroke-linejoin="round" stroke-dasharray="8 8" d="M 1377.76 959 L 1602 1164 C 1606.6666666666665 1168.5333333333333 1611.6666666666665 1172.8666666666666 1617 1177 L 1828.81 1359" marker-end="url(#v-2-480243263)"></path><g id="v-3199" ><g id="v-3200"  label-idx="0" cursor="move" transform="matrix(1,0,0,1,1609.19140625,1170.5992431640625)" style="cursor: default;"><rect joint-selector="rect" id="v-3203" fill="#ffffff" rx="3" ry="3" x="-96.75584411621094" y="-30.078229904174805" width="193.51168823242188" height="58.54169845581055" pointer-events="none"  style="display: block;"></rect><text joint-selector="text" id="v-3202" font-size="24px" xml:space="preserve" fill="#707070" text-anchor="middle" pointer-events="none" font-family="Tahoma, Verdana, Helvetica, Arial" font-weight="normal"  style="display: block;"><tspan  dy="-0.3em">Envia notificações</tspan><tspan dy="1.2em" x="0" >e emails</tspan></text></g><g id="v-3201"  label-idx="1" cursor="move" transform="matrix(1,0,0,1,1599.19140625,1196.999267578125)" style="cursor: default;"><rect joint-selector="rect" id="v-3205" fill="#ffffff" rx="3" ry="3" x="2.2737367544323206e-13" y="2.2737367544323206e-13" width="0" height="0"  display="none"></rect><text joint-selector="text" id="v-3204" fill="#000000" font-size="14" text-anchor="middle" text-vertical-anchor="middle" pointer-events="none"></text></g></g></g><!--z-index:28--></g><g  style="user-select: none;"></g><g ></g><g  display="none"></g></g></svg>