<svg xmlns="http://www.w3.org/2000/svg" xmlns:xlink="http://www.w3.org/1999/xlink" version="1.1" style="background: #ffffff" viewBox="149.00001274360403 109.000002682864 2080.00000335358 500"><style id="v-3" type="text/css">        .joint-element .scalable * {            vector-effect: non-scaling-stroke;        }    </style><defs joint-selector="defs"><marker id="v-2-480243263" orient="auto" overflow="visible" markerUnits="userSpaceOnUse"><path id="v-98" stroke="#707070" fill="#707070" transform="rotate(180)" d="M 20 -10 0 0 20 10 Z"></path></marker></defs><g  joint-selector="layers" transform="matrix(1,0,0,1,0,0)"><g style="pointer-events: none;" ></g><g ></g><g  style="user-select: none;"><!--z-index:1--><!--z-index:2--><!--z-index:3--><!--z-index:4--><!--z-index:5--><!--z-index:6--><!--z-index:7--><g   id="j_303"  transform="translate(20,756)"><g id="v-3001"><text  id="v-3002" font-size="24px" xml:space="preserve" y="0.8em" font-weight="normal" text-anchor="start" fill="#444444" pointer-events="none" display="block" font-family="Tahoma, Verdana, Helvetica, Arial"><tspan  dy="0" display="none">sexta-feira, 22 de maio de 2026 às 12:20 Horário Padrão do Amazonas</tspan></text></g></g><!--z-index:8--><g   id="j_302"  transform="translate(20,710)"><g id="v-2999"><text  id="v-3000" font-size="36px" xml:space="preserve" y="0.8em" font-weight="normal" text-anchor="start" fill="#444444" pointer-events="none" display="block" font-family="Tahoma, Verdana, Helvetica, Arial"><tspan  dy="0" display="none">System Context View: Plataforma Goya</tspan></text></g></g><!--z-index:9--><g   id="j_304"  transform="translate(199,159)" style=""><g  id="v-3006" style="opacity: 1;"><rect  x="0" y="160" width="400" height="240" rx="70" id="v-3008" stroke-width="2" pointer-events="visiblePainted" fill="#08427b" stroke="#0b4884" stroke-dasharray="" style="fill: rgb(8, 66, 123); stroke: rgb(11, 72, 132);"></rect><circle  cx="200" cy="88.88888888888889" r="88.88888888888889" id="v-3007" stroke-width="2" pointer-events="visiblePainted" fill="#08427b" stroke="#0b4884" stroke-dasharray="" style="fill: rgb(8, 66, 123); stroke: rgb(11, 72, 132);"></circle><line  x1="80" y1="266.6666666666667" x2="80" y2="400" id="v-3014" stroke="#0b4884" stroke-width="1" stroke-dasharray="" style="stroke: rgb(11, 72, 132);"></line><line  x1="320" y1="266.6666666666667" x2="320" y2="400" id="v-3015" stroke="#0b4884" stroke-width="1" stroke-dasharray="" style="stroke: rgb(11, 72, 132);"></line><text  id="v-3009" font-size="33.599999999999994px" xml:space="preserve" y="216.9" font-weight="bold" text-anchor="middle" pointer-events="visible" font-family="Tahoma, Verdana, Helvetica, Arial" fill="#ffffff" dominant-baseline="hanging" transform="matrix(1,0,0,1,200,0)" style="fill: rgb(255, 255, 255);"><tspan  dy="0">Usuário</tspan></text><text  id="v-3010" font-size="16.799999999999997px" xml:space="preserve" y="258.5" text-anchor="middle" font-family="Tahoma, Verdana, Helvetica, Arial" fill="#ffffff" dominant-baseline="hanging" transform="matrix(1,0,0,1,200,0)" style="display: block; fill: rgb(255, 255, 255);"><tspan  dy="0">[Person]</tspan></text><text  id="v-3011" font-size="24px" xml:space="preserve" y="290.3" text-anchor="middle" font-family="Tahoma, Verdana, Helvetica, Arial" fill="#ffffff" dominant-baseline="hanging" transform="matrix(1,0,0,1,200,0)" style="display: block; fill: rgb(255, 255, 255);"><tspan  dy="0">Aluno, instrutor ou</tspan><tspan dy="1.2em" x="0" >administrador da plataforma.</tspan></text><g  id="v-3012" font-weight="normal" text-anchor="middle" color="#ffffff" transform="matrix(1,0,0,1,197.5,368)" style="fill: rgb(255, 255, 255);" display="none"><g ></g><g ></g><g ></g><g ></g></g><image  id="v-3013"></image></g></g><!--z-index:10--><g   id="j_305"  transform="translate(939,209)" style=""><g  id="v-3019" style="opacity: 1;"><rect  id="v-3020" rx="20" ry="20" stroke-width="2" pointer-events="visiblePainted" fill="#1168bd" stroke="#0b4884" stroke-dasharray="" width="450" height="300" style="fill: rgb(17, 104, 189); stroke: rgb(11, 72, 132);"></rect><text  id="v-3021" font-size="33.599999999999994px" xml:space="preserve" y="86.9" font-weight="bold" text-anchor="middle" pointer-events="visible" font-family="Tahoma, Verdana, Helvetica, Arial" fill="#ffffff" dominant-baseline="hanging" transform="matrix(1,0,0,1,225,0)" style="fill: rgb(255, 255, 255);"><tspan  dy="0">Plataforma Goya</tspan></text><text  id="v-3022" font-size="16.799999999999997px" xml:space="preserve" y="128.5" text-anchor="middle" font-family="Tahoma, Verdana, Helvetica, Arial" fill="#ffffff" dominant-baseline="hanging" transform="matrix(1,0,0,1,225,0)" style="display: block; fill: rgb(255, 255, 255);"><tspan  dy="0">[Software System]</tspan></text><text  id="v-3023" font-size="24px" xml:space="preserve" y="160.3" text-anchor="middle" font-family="Tahoma, Verdana, Helvetica, Arial" fill="#ffffff" dominant-baseline="hanging" transform="matrix(1,0,0,1,225,0)" style="display: block; fill: rgb(255, 255, 255);"><tspan  dy="0">Plataforma centralizada de gestão</tspan><tspan dy="1.2em" x="0" >operacional e agendamentos.</tspan></text><g  id="v-3024" color="#ffffff" transform="matrix(1,0,0,1,210,268)" style="fill: rgb(255, 255, 255);" display="none"><g  transform="translate(5 0)"><svg xmlns="http://www.w3.org/2000/svg" width="20" height="20" fill="currentColor" viewBox="0 0 16 16"><path fill-rule="evenodd" d="M6.5 12a5.5 5.5 0 1 0 0-11 5.5 5.5 0 0 0 0 11zM13 6.5a6.5 6.5 0 1 1-13 0 6.5 6.5 0 0 1 13 0z"></path><path d="M10.344 11.742c.03.04.062.078.098.115l3.85 3.85a1 1 0 0 0 1.415-1.414l-3.85-3.85a1.007 1.007 0 0 0-.115-.1 6.538 6.538 0 0 1-1.398 1.4z"></path><path fill-rule="evenodd" d="M6.5 3a.5.5 0 0 1 .5.5V6h2.5a.5.5 0 0 1 0 1H7v2.5a.5.5 0 0 1-1 0V7H3.5a.5.5 0 0 1 0-1H6V3.5a.5.5 0 0 1 .5-.5z"></path></svg></g><g ></g><g ></g><g ></g></g><image  id="v-3025"></image></g></g><!--z-index:11--><g   id="j_306"  transform="translate(1729,209)" style=""><g  id="v-3032" style="opacity: 1;"><rect  id="v-3033" rx="20" ry="20" stroke-width="2" pointer-events="visiblePainted" fill="#1168bd" stroke="#0b4884" stroke-dasharray="" width="450" height="300" style="fill: rgb(17, 104, 189); stroke: rgb(11, 72, 132);"></rect><text  id="v-3034" font-size="33.599999999999994px" xml:space="preserve" y="86.9" font-weight="bold" text-anchor="middle" pointer-events="visible" font-family="Tahoma, Verdana, Helvetica, Arial" fill="#ffffff" dominant-baseline="hanging" transform="matrix(1,0,0,1,225,0)" style="fill: rgb(255, 255, 255);"><tspan  dy="0">Serviço de Email</tspan></text><text  id="v-3035" font-size="16.799999999999997px" xml:space="preserve" y="128.5" text-anchor="middle" font-family="Tahoma, Verdana, Helvetica, Arial" fill="#ffffff" dominant-baseline="hanging" transform="matrix(1,0,0,1,225,0)" style="display: block; fill: rgb(255, 255, 255);"><tspan  dy="0">[Software System]</tspan></text><text  id="v-3036" font-size="24px" xml:space="preserve" y="160.3" text-anchor="middle" font-family="Tahoma, Verdana, Helvetica, Arial" fill="#ffffff" dominant-baseline="hanging" transform="matrix(1,0,0,1,225,0)" style="display: block; fill: rgb(255, 255, 255);"><tspan  dy="0">Serviço externo utilizado para envio</tspan><tspan dy="1.2em" x="0" >de notificações.</tspan></text><g  id="v-3037" color="#ffffff" transform="matrix(1,0,0,1,222.5,268)" style="fill: rgb(255, 255, 255);" display="none"><g ></g><g ></g><g ></g><g ></g></g><image  id="v-3038"></image></g></g><!--z-index:12--><g   id="j_307"  style="opacity: 1;"><path fill="none" cursor="pointer" stroke="transparent" stroke-linecap="round" joint-selector="wrapper" id="v-3050" stroke-width="10" stroke-linejoin="round" d="M 599 359 L 939 359" style="stroke-width: 10px;"></path><path fill="none" pointer-events="none" joint-selector="line" id="v-3049" stroke="#707070" stroke-width="2" stroke-linejoin="round" stroke-dasharray="8 8" d="M 599 359 L 939 359" marker-end="url(#v-2-480243263)"></path><g id="v-3042" ><g id="v-3043"  label-idx="0" cursor="move" transform="matrix(1,0,0,1,769,359)" style="cursor: default;"><rect joint-selector="rect" id="v-3046" fill="#ffffff" rx="3" ry="3" x="-56.666664123535156" y="-29.178022384643555" width="117.43589782714844" height="57.371429443359375" pointer-events="none"  style="display: block;"></rect><text joint-selector="text" id="v-3045" font-size="24px" xml:space="preserve" fill="#707070" text-anchor="middle" pointer-events="none" font-family="Tahoma, Verdana, Helvetica, Arial" font-weight="normal"  style="display: block;"><tspan  dy="-0.3em">Acessa a</tspan><tspan dy="1.2em" x="0" >plataforma</tspan></text></g><g id="v-3044"  label-idx="1" cursor="move" transform="matrix(1,0,0,1,759,385.3999938964844)" style="cursor: default;"><rect joint-selector="rect" id="v-3048" fill="#ffffff" rx="3" ry="3" x="-2.220446049250313e-16" y="0" width="0" height="0"  display="none"></rect><text joint-selector="text" id="v-3047" fill="#000000" font-size="14" text-anchor="middle" text-vertical-anchor="middle" pointer-events="none"></text></g></g></g><!--z-index:13--><g   id="j_308"  style="opacity: 1;"><path fill="none" cursor="pointer" stroke="transparent" stroke-linecap="round" joint-selector="wrapper" id="v-3062" stroke-width="10" stroke-linejoin="round" d="M 1389 359 L 1729 359" style="stroke-width: 10px;"></path><path fill="none" pointer-events="none" joint-selector="line" id="v-3061" stroke="#707070" stroke-width="2" stroke-linejoin="round" stroke-dasharray="8 8" d="M 1389 359 L 1729 359" marker-end="url(#v-2-480243263)"></path><g id="v-3054" ><g id="v-3055"  label-idx="0" cursor="move" transform="matrix(1,0,0,1,1559,359)" style="cursor: default;"><rect joint-selector="rect" id="v-3058" fill="#ffffff" rx="3" ry="3" x="-96.72160339355469" y="-29.178022384643555" width="195.7875518798828" height="57.371429443359375" pointer-events="none"  style="display: block;"></rect><text joint-selector="text" id="v-3057" font-size="24px" xml:space="preserve" fill="#707070" text-anchor="middle" pointer-events="none" font-family="Tahoma, Verdana, Helvetica, Arial" font-weight="normal"  style="display: block;"><tspan  dy="-0.3em">Envia notificações</tspan><tspan dy="1.2em" x="0" >e emails</tspan></text></g><g id="v-3056"  label-idx="1" cursor="move" transform="matrix(1,0,0,1,1549,385.3999938964844)" style="cursor: default;"><rect joint-selector="rect" id="v-3060" fill="#ffffff" rx="3" ry="3" x="-2.220446049250313e-16" y="0" width="0" height="0"  display="none"></rect><text joint-selector="text" id="v-3059" fill="#000000" font-size="14" text-anchor="middle" text-vertical-anchor="middle" pointer-events="none"></text></g></g></g><!--z-index:14--><!--z-index:15--><!--z-index:16--><!--z-index:17--><!--z-index:18--><!--z-index:19--><!--z-index:20--><!--z-index:21--><!--z-index:22--><!--z-index:23--><!--z-index:24--><!--z-index:25--><!--z-index:26--><!--z-index:27--><!--z-index:28--></g><g  style="user-select: none;"></g><g ></g><g  display="none"></g></g></svg>